<?xml version="1.0" standalone="no"?><!DOCTYPE svg PUBLIC "-//W3C//DTD SVG 1.1//EN"
        "http://www.w3.org/Graphics/SVG/1.1/DTD/svg11.dtd">
<svg t="1752637375593" class="icon" viewBox="0 0 1024 1024" version="1.1" xmlns="http://www.w3.org/2000/svg"
     p-id="26402" width="200" height="200" xmlns:xlink="http://www.w3.org/1999/xlink">
    <path d="M512 0c246.857143 0 512 62.610286 512 200.704v621.714286C1024 961.389714 766.537143 1024 512 1024s-512-69.046857-512-201.581714v-621.714286C0 62.610286 265.142857 0 512 0z m420.790857 731.428571a549.302857 549.302857 0 0 1-91.136 39.789715 43.446857 43.446857 0 0 1 39.862857 7.094857c11.776 8.850286 19.748571 23.113143 21.869715 39.277714-0.585143 19.529143-11.410286 36.644571-27.355429 43.081143-14.628571 7.314286-31.085714 7.314286-45.641143 0-15.945143-6.436571-26.770286-23.552-27.355428-43.154286 0.512-20.626286 12.434286-38.692571 29.476571-44.617143A1199.542857 1199.542857 0 0 1 512 812.617143c-143.579429 5.851429-286.72-21.723429-420.790857-81.261714v88.576c0 39.862857 164.059429 112.128 420.790857 112.128 256.731429 0 420.790857-73.142857 420.790857-112.128z m-2.048-204.8a564.297143 564.297143 0 0 1-89.088 37.376 43.300571 43.300571 0 0 1 38.765714 5.632c11.702857 8.045714 19.968 21.211429 22.966858 36.571429-0.438857 19.821714-11.337143 37.302857-27.355429 43.885714a52.662857 52.662857 0 0 1-45.641143 0v4.973715c-15.579429-6.509714-26.331429-23.113143-27.355428-42.276572 0.877714-20.114286 12.288-37.522286 28.818285-43.885714A1190.180571 1190.180571 0 0 1 512 607.817143c-143.579429 5.851429-286.72-21.723429-420.790857-81.261714v93.476571C91.209143 659.017143 252.489143 731.428571 512 731.428571s420.790857-77.238857 418.742857-115.419428z m2.048-207.213714A939.52 939.52 0 0 1 512 400.603429c-143.579429 5.997714-286.72-21.650286-420.790857-81.188572v86.966857C91.209143 446.171429 255.268571 518.509714 512 518.509714c256.731429 0 420.790857-73.142857 420.790857-112.128z m-86.601143 37.888l7.314286 0.292572a41.545143 41.545143 0 0 1 33.792 12.214857 56.027429 56.027429 0 0 1 16.091429 36.571428c-0.658286 19.675429-11.410286 36.937143-27.355429 43.885715a53.76 53.76 0 0 1-22.454857 4.827428 54.272 54.272 0 0 1-23.186286-4.827428c-15.872-6.948571-26.697143-24.210286-27.355428-43.885715a56.027429 56.027429 0 0 1 16.310857-36.864 43.373714 43.373714 0 0 1 19.602285-11.044571l7.241143-1.170286zM512 89.380571c-260.900571 0-420.790857 71.533714-420.790857 111.323429 0 39.862857 159.890286 112.201143 420.790857 112.201143 259.510857 0 420.790857-73.142857 420.790857-112.201143 0-38.985143-159.890286-111.323429-420.790857-111.323429z"
          p-id="26403"></path>
</svg>